<svg xmlns="http://www.w3.org/2000/svg" version="1.1" xmlns:xlink="http://www.w3.org/1999/xlink" xmlns:svgjs="http://svgjs.dev/svgjs" width="2000" height="2245" viewBox="0 0 2000 2245"><g transform="matrix(1,0,0,1,1.9090909090907644,0.9089068825910545)"><svg viewBox="0 0 220 247" data-background-color="#ea3c12" preserveAspectRatio="xMidYMid meet" height="2245" width="2000" xmlns="http://www.w3.org/2000/svg" xmlns:xlink="http://www.w3.org/1999/xlink"><g id="tight-bounds" transform="matrix(1,0,0,1,-0.20999999999997954,-0.09999999999999432)"><svg viewBox="0 0 220.42 247.2" height="247.2" width="220.42"><g><svg viewBox="0 0 220.42 247.2" height="247.2" width="220.42"><g><svg viewBox="0 0 220.42 247.2" height="247.2" width="220.42"><g id="textblocktransform"><svg viewBox="0 0 220.42 247.2" height="247.2" width="220.42" id="textblock"><g><svg viewBox="0 0 220.42 247.2" height="247.2" width="220.42"><g transform="matrix(1,0,0,1,0,0)"><svg width="220.42" viewBox="1.75 -35.5 32.1 36" height="247.2" data-palette-color="#000000"><path d="M27.5-31.85L17.3-19.45 29.05-2.95 33.85-1.5 33.6 0.5 27.5 0 19.9 0.5 20-1.5 23.75-2.45 21.75-5.95 14.6-16.2 10.6-15.7 10.85-2.5 14.95-1.5 14.7 0.5 8.6 0 1.75 0.5 1.85-1.5 6-2.5 6.35-16.8 5.95-32.5 2-33.5 2.25-35.5 8.35-35 15.2-35.5 15.1-33.5 10.9-32.5 10.55-18 13.5-18.45 22.25-29.5 23.9-32.7 20.75-33.5 21-35.5 27.2-35 32.4-35.5 32.3-33.5 27.5-31.85Z" opacity="1" transform="matrix(1,0,0,1,0,0)" fill="#000000" class="wordmark-text-0" data-fill-palette-color="primary" id="text-0"></path></svg></g></svg></g></svg></g></svg></g><g></g></svg></g><defs></defs></svg><rect width="220.42" height="247.2" fill="none" stroke="none" visibility="hidden"></rect></g></svg></g></svg>